# xmcd
#
# Track frame offsets:
#	150
#	15899
#	29527
#	38300
#	51162
#	63983
#	73379
#	83786
#	96652
#	105578
#	121161
#	135215
#
# Disc length: 1935 seconds
# Revision: 0
# Processed by: cddbd v1.5.2PL0 Copyright (c) Steve Scherf et al.
# Submitted via: dBpowerAMP V12.0
#
DISCID=94078d0c
DTITLE=Mama Rosin with Hipbone Slim - Louisiana Sun
DYEAR=2011
DGENRE=Blues
TTITLE0=Voodo Walking
TTITLE1=Gettin' High
TTITLE2=London Zydeco
TTITLE3=Trouble Ain't So Never Far Away
TTITLE4=Quel Espoir?
TTITLE5=The Cat Never Sleeps
TTITLE6=Louisiana Sun
TTITLE7=Killing Two Birds With One Stone
TTITLE8=Citi Two-Step
TTITLE9=Swamp Water
TTITLE10=Princess Havana
TTITLE11=Paint The Town Red
EXTD=
EXTT0=
EXTT1=
EXTT2=
EXTT3=
EXTT4=
EXTT5=
EXTT6=
EXTT7=
EXTT8=
EXTT9=
EXTT10=
EXTT11=
PLAYORDER=
